<svg id="svg" version="1.1" xmlns="http://www.w3.org/2000/svg" xmlns:xlink="http://www.w3.org/1999/xlink" width="400" height="400" viewBox="0, 0, 400,400"><g id="svgg"><path id="path0" d="M105.600 29.098 C 98.465 29.491,94.605 30.670,89.899 33.893 C 85.274 37.061,82.485 38.218,76.600 39.413 C 70.020 40.749,68.061 41.761,65.406 45.197 C 62.884 48.462,60.888 50.461,57.617 53.000 C 55.870 54.356,54.711 55.641,54.020 56.989 L 53.000 58.979 52.963 77.189 C 52.911 103.110,52.336 106.219,45.410 118.000 C 40.683 126.041,40.270 129.002,40.192 155.400 C 40.106 184.413,40.035 184.816,33.135 195.330 C 28.056 203.068,27.599 206.538,27.485 238.200 C 27.393 263.779,27.507 265.841,29.849 280.800 C 31.290 290.009,31.215 293.294,29.414 299.800 C 28.106 304.524,27.935 305.751,27.547 313.200 C 26.366 335.854,28.367 341.111,38.442 341.831 C 47.729 342.495,51.274 347.421,52.402 361.229 C 53.424 373.739,52.616 373.400,81.400 373.400 C 110.199 373.400,109.597 373.638,110.430 361.920 C 111.236 350.565,113.868 344.513,119.125 341.923 L 121.000 341.000 181.000 340.698 C 214.000 340.532,249.910 340.442,260.800 340.498 L 280.600 340.600 283.089 341.750 C 289.294 344.616,292.670 350.984,293.548 361.476 C 294.416 371.866,298.319 373.143,327.800 372.687 C 345.926 372.407,346.491 372.077,347.246 361.351 C 348.241 347.231,352.289 341.444,361.922 340.372 C 368.003 339.695,370.779 337.312,372.082 331.647 C 373.001 327.657,372.720 306.959,371.662 300.691 C 370.585 294.307,370.588 292.716,371.694 283.800 C 372.556 276.849,372.587 275.383,372.593 241.400 C 372.602 198.353,372.624 198.557,366.680 188.246 C 360.146 176.912,359.601 173.646,359.599 145.810 C 359.597 116.442,359.380 114.937,353.424 103.000 C 347.566 91.261,346.801 87.628,346.801 71.555 C 346.800 55.788,346.518 54.807,340.072 48.111 C 335.394 43.251,333.551 42.245,325.520 40.166 C 319.900 38.712,316.358 37.217,311.045 34.057 C 303.669 29.671,307.490 29.962,252.200 29.587 C 201.351 29.243,108.583 28.933,105.600 29.098 M320.867 51.458 C 327.864 54.107,336.055 63.003,338.322 70.418 C 340.448 77.366,340.966 89.703,339.624 101.400 C 339.422 103.160,339.240 112.430,339.219 122.000 C 339.198 131.570,339.007 143.630,338.795 148.800 C 338.176 163.877,339.291 180.641,341.604 191.049 C 342.245 193.936,342.954 198.558,343.178 201.320 C 343.446 204.616,344.000 207.818,344.793 210.640 C 347.208 219.242,345.680 221.668,336.727 223.451 C 333.877 224.018,328.842 224.151,301.600 224.380 C 270.850 224.638,269.680 224.675,266.157 225.514 C 257.142 227.662,257.333 227.652,215.000 228.021 C 193.220 228.211,159.110 228.378,139.200 228.392 C 118.758 228.407,101.781 228.584,100.200 228.798 C 93.594 229.694,71.577 230.119,67.859 229.422 C 48.697 225.832,46.165 220.084,55.076 200.400 C 56.520 197.210,58.665 191.717,59.842 188.193 C 62.853 179.183,62.675 181.727,63.560 135.000 C 64.036 109.846,65.105 105.303,72.393 97.456 C 80.157 89.097,83.194 80.556,83.202 67.058 C 83.205 62.685,83.648 60.870,85.031 59.570 L 86.063 58.600 105.932 58.362 C 130.491 58.068,138.631 57.296,149.800 54.200 C 160.019 51.367,162.532 51.207,197.743 51.147 C 214.935 51.118,231.790 50.970,235.200 50.818 C 252.182 50.061,318.486 50.557,320.867 51.458 M82.800 247.658 C 88.136 248.698,98.836 257.686,101.397 263.280 C 105.921 273.163,103.614 289.986,96.800 296.800 C 88.307 305.293,67.870 306.225,61.718 298.399 C 58.219 293.950,56.625 292.302,53.787 290.203 C 48.464 286.267,47.551 284.361,47.293 276.653 C 47.002 267.983,48.235 264.686,53.086 261.168 C 56.389 258.771,58.185 257.000,60.613 253.742 C 65.316 247.433,72.100 245.573,82.800 247.658 M332.800 248.011 C 336.128 248.984,337.770 250.373,340.639 254.641 C 341.913 256.536,343.951 258.923,345.166 259.944 C 351.212 265.023,352.449 267.218,352.995 273.835 C 353.609 281.286,351.976 285.567,347.053 289.414 C 344.667 291.278,342.996 293.055,340.786 296.078 C 335.765 302.944,333.201 303.893,320.800 303.473 C 300.964 302.800,297.912 299.670,297.322 279.400 C 296.922 265.678,298.796 260.071,305.954 253.559 C 312.501 247.603,323.582 245.313,332.800 248.011 " stroke="none" fill="#070506" fill-rule="evenodd"></path><path id="path1" d="M337.213 102.228 C 336.016 102.983,334.808 103.600,334.528 103.600 C 332.459 103.600,330.440 115.981,330.408 128.865 C 330.378 141.311,328.324 143.133,313.350 143.996 C 303.069 144.589,300.041 145.782,296.776 150.528 C 293.049 155.947,292.552 156.211,285.400 156.586 C 277.057 157.023,274.570 158.257,271.034 163.717 C 267.662 168.925,267.390 169.066,259.762 169.574 C 251.874 170.099,249.654 171.233,246.004 176.600 C 243.052 180.941,241.870 181.668,235.248 183.215 C 229.730 184.503,228.212 185.315,224.400 189.011 C 220.223 193.062,218.880 193.754,212.332 195.230 C 205.495 196.772,203.335 197.844,199.312 201.690 C 195.722 205.122,193.168 206.544,189.358 207.231 C 180.776 208.778,178.441 209.847,174.200 214.170 C 169.329 219.135,169.857 219.029,150.600 218.875 C 139.230 218.784,132.777 218.919,126.800 219.372 C 122.290 219.714,116.440 219.998,113.800 220.003 C 109.773 220.011,104.804 220.662,104.206 221.261 C 103.952 221.515,103.561 223.654,103.394 225.707 C 103.308 226.756,103.129 227.791,102.996 228.007 C 102.804 228.317,155.657 228.766,164.400 228.530 C 165.170 228.509,185.870 228.298,210.400 228.061 C 257.931 227.603,257.247 227.634,266.117 225.523 C 269.690 224.673,270.750 224.638,301.600 224.380 C 328.842 224.151,333.877 224.018,336.727 223.451 C 345.680 221.668,347.208 219.242,344.793 210.640 C 344.000 207.818,343.446 204.616,343.178 201.320 C 342.954 198.558,342.246 193.936,341.604 191.049 C 339.697 182.461,337.928 160.760,338.617 154.400 C 338.821 152.519,339.580 101.458,339.412 100.928 C 339.399 100.888,338.410 101.473,337.213 102.228 " stroke="none" fill="#c9141e" fill-rule="evenodd"></path><path id="path2" d="M0.000 200.000 L 0.000 400.000 5.000 400.000 C 7.750 400.000,10.007 399.865,10.015 399.700 C 10.590 388.277,14.701 385.770,36.400 383.610 C 49.627 382.294,49.611 382.302,47.617 377.977 C 46.236 374.980,45.438 371.120,45.018 365.400 C 44.362 356.465,42.743 354.529,35.160 353.609 C 26.278 352.533,23.980 350.493,21.233 341.247 C 19.323 334.819,18.987 331.369,19.537 323.851 C 20.841 306.039,21.277 294.247,20.820 289.200 C 19.968 279.795,19.760 264.205,19.935 222.800 C 20.047 196.382,20.836 192.100,26.875 185.144 C 32.618 178.530,33.731 172.536,32.845 153.000 C 32.403 143.243,32.941 124.665,33.836 118.800 C 34.553 114.105,36.105 110.683,39.975 105.263 C 45.756 97.166,45.763 97.128,45.827 74.584 C 45.894 51.248,45.763 51.726,53.577 46.471 C 56.450 44.539,57.314 43.674,59.377 40.671 C 62.202 36.557,63.859 35.307,68.522 33.771 C 73.330 32.188,76.063 30.867,81.171 27.660 C 90.914 21.542,93.262 21.420,179.400 22.553 C 183.360 22.605,211.620 22.783,242.200 22.949 C 313.778 23.337,312.066 23.179,321.849 30.313 C 325.701 33.121,328.578 34.483,333.800 35.967 C 349.067 40.307,352.189 45.507,352.790 67.600 C 353.225 83.569,353.668 85.487,359.149 95.137 C 364.532 104.615,365.245 110.042,365.382 142.600 C 365.502 170.998,365.368 170.199,371.234 177.468 C 378.838 186.889,379.131 189.227,379.206 241.000 C 379.309 312.446,379.077 332.829,378.112 337.066 C 376.175 345.566,373.044 348.838,366.074 349.645 C 355.600 350.857,353.878 352.659,353.155 363.156 C 352.092 378.585,350.353 379.421,320.018 379.074 C 289.039 378.720,287.587 378.050,286.197 363.459 C 285.389 354.975,283.538 351.870,278.634 350.773 C 276.349 350.261,228.176 350.492,188.000 351.207 C 175.790 351.425,156.440 351.740,145.000 351.908 C 117.253 352.317,118.113 351.899,117.220 365.404 C 116.665 373.800,115.353 377.201,111.234 380.922 C 109.310 382.660,109.216 383.101,110.700 383.426 C 111.305 383.558,112.070 383.755,112.400 383.864 C 116.196 385.110,150.158 386.374,179.800 386.372 C 191.025 386.371,208.938 386.786,233.000 387.602 C 277.619 389.117,367.234 389.142,374.000 387.642 C 385.173 385.164,387.587 381.363,388.380 365.000 C 388.561 361.260,388.724 285.121,388.742 195.802 C 388.765 82.195,388.904 32.502,389.205 30.402 C 390.470 21.583,392.985 17.603,398.066 16.384 L 400.000 15.920 400.000 7.960 L 400.000 0.000 200.000 0.000 L 0.000 0.000 0.000 200.000 M71.006 253.467 C 68.263 254.309,67.122 255.213,64.337 258.749 C 63.015 260.427,60.399 263.037,58.522 264.549 C 50.676 270.872,50.655 280.036,58.473 286.181 C 60.370 287.672,62.966 290.254,64.491 292.166 C 71.274 300.668,81.842 300.219,91.048 291.038 C 96.824 285.277,98.284 281.764,97.878 274.600 C 97.542 268.677,97.079 267.825,90.634 261.263 C 82.484 252.965,78.196 251.262,71.006 253.467 M320.200 253.341 C 313.685 255.029,304.603 264.340,303.250 270.720 C 302.249 275.436,303.009 284.120,304.853 289.050 C 307.108 295.078,312.758 297.701,323.627 297.767 C 331.135 297.813,332.553 297.116,336.681 291.352 C 338.265 289.140,340.561 286.476,341.783 285.432 C 347.948 280.165,348.059 272.498,342.062 266.286 C 340.598 264.770,338.125 261.700,336.565 259.465 C 332.327 253.390,327.289 251.504,320.200 253.341 " stroke="none" fill="#e2dbdb" fill-rule="evenodd"></path><path id="path3" d="M312.000 63.646 C 307.493 64.209,306.178 64.943,301.879 69.299 C 297.694 73.538,295.653 74.768,289.413 76.811 C 286.105 77.894,284.112 79.027,279.579 82.402 C 275.181 85.678,273.268 86.523,266.127 88.350 C 259.477 90.051,257.098 91.117,253.961 93.800 C 250.959 96.368,248.430 97.972,243.959 100.146 C 240.719 101.721,239.593 102.545,236.759 105.414 C 232.552 109.673,230.867 110.518,224.000 111.816 C 216.992 113.141,215.288 113.991,211.139 118.238 C 206.975 122.501,205.949 123.030,199.447 124.272 C 192.270 125.643,190.801 126.412,186.592 130.998 C 182.370 135.596,181.273 136.161,174.586 137.174 C 166.524 138.396,165.451 138.921,160.151 144.244 C 156.644 147.764,155.084 148.409,146.703 149.799 C 136.535 151.485,133.018 152.842,128.600 156.787 C 124.950 160.046,122.746 161.279,117.400 163.052 C 111.224 165.100,108.895 166.374,104.306 170.216 C 101.890 172.239,99.348 173.430,93.196 175.423 C 85.985 177.759,85.099 178.198,80.400 181.768 C 78.310 183.355,75.047 185.586,73.149 186.724 C 67.418 190.162,66.147 192.053,63.825 200.600 C 63.047 203.460,61.662 207.690,60.747 210.000 C 57.769 217.513,58.869 220.080,65.872 221.966 C 72.564 223.768,95.583 222.987,106.479 220.590 C 107.993 220.256,111.210 219.999,113.879 219.997 C 116.476 219.995,122.290 219.714,126.800 219.372 C 132.777 218.919,139.230 218.784,150.600 218.875 C 169.857 219.029,169.329 219.135,174.200 214.170 C 178.441 209.847,180.776 208.778,189.358 207.231 C 193.168 206.544,195.722 205.122,199.312 201.690 C 203.335 197.844,205.495 196.772,212.332 195.230 C 218.880 193.754,220.223 193.062,224.400 189.011 C 228.212 185.315,229.730 184.503,235.248 183.215 C 241.870 181.668,243.052 180.941,246.004 176.600 C 249.654 171.233,251.874 170.099,259.762 169.574 C 267.390 169.066,267.662 168.925,271.034 163.717 C 274.570 158.257,277.057 157.023,285.400 156.586 C 292.552 156.211,293.049 155.947,296.776 150.528 C 300.041 145.782,303.069 144.589,313.350 143.996 C 328.264 143.136,330.399 141.267,330.400 129.065 C 330.401 122.070,331.546 110.277,332.565 106.761 C 338.463 86.407,331.382 65.610,317.933 63.785 C 316.980 63.655,315.840 63.498,315.400 63.436 C 314.960 63.373,313.430 63.468,312.000 63.646 " stroke="none" fill="#fcfc14" fill-rule="evenodd"></path><path id="path4" d="M397.289 16.588 C 392.744 18.007,390.410 21.995,389.205 30.402 C 388.904 32.502,388.765 82.195,388.742 195.802 C 388.724 285.121,388.561 361.260,388.380 365.000 C 387.587 381.363,385.173 385.164,374.000 387.642 C 367.234 389.142,277.619 389.117,233.000 387.602 C 208.938 386.786,191.025 386.371,179.800 386.372 C 150.158 386.374,116.196 385.110,112.400 383.864 C 112.070 383.755,111.305 383.558,110.700 383.426 C 109.216 383.101,109.310 382.660,111.234 380.922 C 115.353 377.201,116.665 373.800,117.220 365.404 C 118.113 351.899,117.253 352.317,145.000 351.908 C 156.440 351.740,175.790 351.425,188.000 351.207 C 228.176 350.492,276.349 350.261,278.634 350.773 C 283.538 351.870,285.389 354.975,286.197 363.459 C 287.587 378.050,289.039 378.720,320.018 379.074 C 350.353 379.421,352.092 378.585,353.155 363.156 C 353.878 352.659,355.600 350.857,366.074 349.645 C 373.044 348.838,376.175 345.566,378.112 337.066 C 379.077 332.829,379.309 312.446,379.206 241.000 C 379.131 189.227,378.838 186.889,371.234 177.468 C 365.368 170.199,365.502 170.998,365.382 142.600 C 365.245 110.042,364.532 104.615,359.149 95.137 C 353.668 85.487,353.225 83.569,352.790 67.600 C 352.189 45.507,349.067 40.307,333.800 35.967 C 328.578 34.483,325.701 33.121,321.849 30.313 C 312.066 23.179,313.778 23.337,242.200 22.949 C 211.620 22.783,183.360 22.605,179.400 22.553 C 93.262 21.420,90.914 21.542,81.171 27.660 C 76.063 30.867,73.330 32.188,68.522 33.771 C 63.859 35.307,62.202 36.557,59.377 40.671 C 57.314 43.674,56.450 44.539,53.577 46.471 C 45.763 51.726,45.894 51.248,45.827 74.584 C 45.763 97.128,45.756 97.166,39.975 105.263 C 36.105 110.683,34.553 114.105,33.836 118.800 C 32.941 124.665,32.403 143.243,32.845 153.000 C 33.731 172.536,32.618 178.530,26.875 185.144 C 20.836 192.100,20.047 196.382,19.935 222.800 C 19.760 264.205,19.968 279.795,20.820 289.200 C 21.277 294.247,20.841 306.039,19.537 323.851 C 18.987 331.369,19.323 334.819,21.233 341.247 C 23.980 350.493,26.278 352.533,35.160 353.609 C 42.743 354.529,44.362 356.465,45.018 365.400 C 45.438 371.120,46.236 374.980,47.617 377.977 C 49.611 382.302,49.627 382.294,36.400 383.610 C 15.193 385.721,11.500 387.765,10.214 398.100 L 9.978 400.000 204.989 400.000 L 400.000 400.000 400.000 208.000 C 400.000 54.652,399.899 16.005,399.500 16.027 C 399.225 16.041,398.230 16.294,397.289 16.588 M252.200 29.587 C 307.490 29.962,303.669 29.671,311.045 34.057 C 316.358 37.217,319.900 38.712,325.520 40.166 C 333.551 42.245,335.394 43.251,340.072 48.111 C 346.518 54.807,346.800 55.788,346.801 71.555 C 346.801 87.628,347.566 91.261,353.424 103.000 C 359.380 114.937,359.597 116.442,359.599 145.810 C 359.601 173.646,360.146 176.912,366.680 188.246 C 372.624 198.557,372.602 198.353,372.593 241.400 C 372.587 275.383,372.556 276.849,371.694 283.800 C 370.588 292.716,370.585 294.307,371.662 300.691 C 372.720 306.959,373.001 327.657,372.082 331.647 C 370.779 337.312,368.003 339.695,361.922 340.372 C 352.289 341.444,348.241 347.231,347.246 361.351 C 346.491 372.077,345.926 372.407,327.800 372.687 C 298.319 373.143,294.416 371.866,293.548 361.476 C 292.670 350.984,289.294 344.616,283.089 341.750 L 280.600 340.600 260.800 340.498 C 249.910 340.442,214.000 340.532,181.000 340.698 L 121.000 341.000 119.125 341.923 C 113.868 344.513,111.236 350.565,110.430 361.920 C 109.597 373.638,110.199 373.400,81.400 373.400 C 52.616 373.400,53.424 373.739,52.402 361.229 C 51.274 347.421,47.729 342.495,38.442 341.831 C 28.367 341.111,26.366 335.854,27.547 313.200 C 27.935 305.751,28.106 304.524,29.414 299.800 C 31.215 293.294,31.290 290.009,29.849 280.800 C 27.507 265.841,27.393 263.779,27.485 238.200 C 27.599 206.538,28.056 203.068,33.135 195.330 C 40.035 184.816,40.106 184.413,40.192 155.400 C 40.270 129.002,40.683 126.041,45.410 118.000 C 52.336 106.219,52.911 103.110,52.963 77.189 L 53.000 58.979 54.020 56.989 C 54.711 55.641,55.870 54.356,57.617 53.000 C 60.888 50.461,62.884 48.462,65.406 45.197 C 68.061 41.761,70.020 40.749,76.600 39.413 C 82.485 38.218,85.274 37.061,89.899 33.893 C 94.605 30.670,98.465 29.491,105.600 29.098 C 108.583 28.933,201.351 29.243,252.200 29.587 M235.200 50.818 C 231.790 50.970,214.935 51.118,197.743 51.147 C 162.532 51.207,160.019 51.367,149.800 54.200 C 138.631 57.296,130.491 58.068,105.932 58.362 L 86.063 58.600 85.031 59.570 C 83.648 60.870,83.205 62.685,83.202 67.058 C 83.194 80.556,80.157 89.097,72.393 97.456 C 65.105 105.303,64.036 109.846,63.560 135.000 C 62.675 181.727,62.853 179.183,59.842 188.193 C 58.665 191.717,56.520 197.210,55.076 200.400 C 47.187 217.827,48.239 223.495,60.083 227.368 C 68.147 230.004,69.622 230.139,84.576 229.604 C 103.630 228.922,103.123 229.025,103.396 225.764 C 103.486 224.684,103.670 223.215,103.804 222.500 C 103.938 221.785,103.889 221.200,103.694 221.200 C 103.499 221.200,101.388 221.474,99.003 221.809 C 88.948 223.220,70.850 223.306,65.872 221.966 C 58.869 220.080,57.769 217.513,60.747 210.000 C 61.662 207.690,63.047 203.460,63.825 200.600 C 66.147 192.053,67.418 190.162,73.149 186.724 C 75.047 185.586,78.310 183.355,80.400 181.768 C 85.099 178.198,85.985 177.759,93.196 175.423 C 99.348 173.430,101.890 172.239,104.306 170.216 C 108.895 166.374,111.224 165.100,117.400 163.052 C 122.746 161.279,124.950 160.046,128.600 156.787 C 133.018 152.842,136.535 151.485,146.703 149.799 C 155.084 148.409,156.644 147.764,160.151 144.244 C 165.451 138.921,166.524 138.396,174.586 137.174 C 181.273 136.161,182.370 135.596,186.592 130.998 C 190.801 126.412,192.270 125.643,199.447 124.272 C 205.949 123.030,206.975 122.501,211.139 118.238 C 215.288 113.991,216.992 113.141,224.000 111.816 C 230.867 110.518,232.552 109.673,236.759 105.414 C 239.593 102.545,240.719 101.721,243.959 100.146 C 248.430 97.972,250.959 96.368,253.961 93.800 C 257.098 91.117,259.477 90.051,266.127 88.350 C 273.268 86.523,275.181 85.678,279.579 82.402 C 284.112 79.027,286.105 77.894,289.413 76.811 C 295.656 74.767,297.763 73.505,301.708 69.444 C 318.404 52.256,339.466 73.044,333.932 101.248 L 333.333 104.296 335.567 103.141 C 340.102 100.794,340.400 99.809,340.400 87.163 C 340.400 72.952,338.131 66.140,331.007 58.963 C 321.975 49.864,326.484 50.606,280.000 50.571 C 258.770 50.555,238.610 50.666,235.200 50.818 M71.600 247.200 C 66.254 247.895,63.948 249.268,60.613 253.742 C 58.185 257.000,56.389 258.771,53.086 261.168 C 48.235 264.686,47.002 267.983,47.293 276.653 C 47.551 284.361,48.464 286.267,53.787 290.203 C 56.625 292.302,58.219 293.950,61.718 298.399 C 64.971 302.537,69.135 303.834,78.000 303.470 C 95.304 302.759,102.852 295.032,103.468 277.400 C 103.857 266.254,102.714 263.351,94.882 255.593 C 87.029 247.815,81.688 245.889,71.600 247.200 M321.800 247.057 C 312.798 247.901,306.260 251.636,301.456 258.683 C 297.860 263.957,296.998 268.278,297.322 279.400 C 297.912 299.670,300.964 302.800,320.800 303.473 C 333.201 303.893,335.765 302.944,340.786 296.078 C 342.996 293.055,344.667 291.278,347.053 289.414 C 351.976 285.567,353.609 281.286,352.995 273.835 C 352.449 267.218,351.212 265.023,345.166 259.944 C 343.951 258.923,341.913 256.536,340.639 254.641 C 336.386 248.315,331.099 246.186,321.800 247.057 M79.680 253.240 C 83.976 254.131,95.409 264.552,96.971 269.000 C 99.741 276.886,97.728 284.376,91.048 291.038 C 81.842 300.219,71.274 300.668,64.491 292.166 C 62.966 290.254,60.370 287.672,58.473 286.181 C 50.655 280.036,50.676 270.872,58.522 264.549 C 60.399 263.037,63.015 260.427,64.337 258.749 C 68.613 253.319,72.805 251.814,79.680 253.240 M331.436 254.222 C 333.434 255.248,334.095 255.924,336.565 259.465 C 338.125 261.700,340.598 264.770,342.062 266.286 C 348.059 272.498,347.948 280.165,341.783 285.432 C 340.561 286.476,338.265 289.140,336.681 291.352 C 332.553 297.116,331.135 297.813,323.627 297.767 C 308.156 297.673,302.800 292.170,302.800 276.367 C 302.800 268.977,303.998 266.335,310.151 260.158 C 317.480 252.802,324.732 250.779,331.436 254.222 " stroke="none" fill="#6eaa61" fill-rule="evenodd"></path></g></svg>